# xmcd
#
# Track frame offsets:
#	150
#	16757
#	31906
#	57532
#	70130
#	85754
#	107977
#	123858
#	137807
#	155358
#	172926
#	186927
#
# Disc length: 2628 seconds
#
# Revision: 1
# Processed by: cddbd v1.5.2PL0 Copyright (c) Steve Scherf et al.
# Submitted via: audiograbber 1.83.01
#
DISCID=980a420c
DTITLE=XANGAI COM QUINTETO DA PARAÍBA - UM ABRAÇO PRA TI PEQUENINA
DYEAR=1900
DGENRE=
TTITLE0=FILOMENA E FEDEGOSO
TTITLE1=ALAGADOS
TTITLE2=MEU SUBLIME TORRÃO-AVE DE PRATA
TTITLE3=DJANIRAS
TTITLE4=OS GALOS-REUNIÃO DE TRITEZA
TTITLE5=MIRAGEM DO PORTO
TTITLE6=CASO VOCÊ CASE
TTITLE7=SODADE MEU BEM SODADE-SAUDADE SENHORA DONA
TTITLE8=BRINCADEIRA NA FOGUEIRA
TTITLE9=SERROTE AGUDO-ROENDO UNHA
TTITLE10=BEILO-MORTE-BEIJO
TTITLE11=FORRÓ NA GAFIEIRA
EXTD=
EXTT0=
EXTT1=
EXTT2=
EXTT3=
EXTT4=
EXTT5=
EXTT6=
EXTT7=
EXTT8=
EXTT9=
EXTT10=
EXTT11=
PLAYORDER=
